:SAMPLES-PER-SECOND 30
:FRAME-RANGE 1-3535
:FULLY-SPECIFIED
:DEGREES
2099
root  13.2713 44.3586 0.788343 -170.516 -29.834 175.704
RightUpLeg  -13.7242 -9.20928 0.835361
RightLeg  18.7386 -5.27329 -2.17548
RightFoot  19.9783 -6.0692 21.9234
RightToes  5.38503e-012 1.26228e-014 -6.01869e-014
Spine  -0.351 -1.45043 -0.953033
Spine1  1.21235 -0.844273 -2.56782
HEad  -0.0149998 -7.0832 -2.95865
LeftShoulder1  -1.47382 -13.7337 19.2772
LeftArm  -66.8022 -41.7983 16.809
LeftForeArm  0.697734 -14.428 0.24403
LeftHand  -0.308842 -0.801077 5.90833
RightShoulder  -0.442273 0.477817 -23.4317
RightArm  -95.024 45.5391 -37.8838
RightForeArm  38.3449 7.99411 -13.6287
RightHand  -0.130441 -4.48597 -15.1284
LeftUpLeg  -11.0753 3.71366 10.981
LeftLeg  30.6531 -3.12236 -1.64789
LeftFoot  -10.6924 0.0946791 -5.40652
LeftToes  8.9788e-011 3.29689e-010 2.1201e-011
2100
root  15.113 45.9331 -1.36191 -170.341 -34.1392 176.074
RightUpLeg  -13.6013 -6.3678 2.13768
RightLeg  22.1704 -2.79098 -1.46536
RightFoot  15.6809 -5.18855 21.8185
RightToes  5.38503e-012 1.26228e-014 -6.01869e-014
Spine  -0.0936172 -1.29317 -1.6348
Spine1  1.9036 -0.708959 -2.90517
HEad  -0.0949457 -5.84234 -2.31248
LeftShoulder1  -1.62418 -14.4637 19.8323
LeftArm  -59.5619 -39.8854 20.8684
LeftForeArm  -2.48569 -7.70875 1.01351
LeftHand  -0.194479 -0.998643 3.6542
RightShoulder  -0.3466 -0.791484 -26.1788
RightArm  -87.4967 45.9491 -39.7312
RightForeArm  30.3391 -3.01395 -15.498
RightHand  -0.0432511 -5.10861 -10.1049
LeftUpLeg  -13.7497 4.74999 7.92706
LeftLeg  30.6334 2.39508 1.88719
LeftFoot  -10.7307 0.0894337 -4.71601
LeftToes  8.9788e-011 3.29689e-010 2.1201e-011
2101
root  16.9633 47.1051 -3.40968 -170.75 -38.6876 176.427
RightUpLeg  -14.2913 -5.92424 3.00796
RightLeg  28.9416 -0.851712 -0.739497
RightFoot  10.4024 -3.9424 20.7007
RightToes  5.38503e-012 1.26228e-014 -6.01869e-014
Spine  1.77398 -1.37662 -2.45482
Spine1  2.37917 -0.970613 -2.55851
HEad  -1.46188 -5.07876 -1.25616
LeftShoulder1  -1.74703 -14.4124 20.6497
LeftArm  -52.7075 -35.4773 21.7789
LeftForeArm  -2.74008 -5.68088 -0.0970764
LeftHand  -0.163524 -0.42389 3.33656
RightShoulder  -0.317287 -1.03912 -26.5413
RightArm  -84.6961 43.451 -37.4724
RightForeArm  28.8342 -2.95584 -15.9143
RightHand  -0.0914501 -4.2245 -7.37955
LeftUpLeg  -15.7531 3.61509 5.22033
LeftLeg  30.9837 6.68167 4.67329
LeftFoot  -9.95238 0.110564 -4.19901
LeftToes  8.9788e-011 3.29689e-010 2.1201e-011
2102
root  18.8106 47.8458 -5.3557 -169.955 -42.821 176.306
RightUpLeg  -17.0057 -4.77471 2.90502
RightLeg  37.7467 0.324049 0.00761768
RightFoot  3.31072 -2.36748 18.4458
RightToes  5.38503e-012 1.26228e-014 -6.01869e-014
Spine  4.27043 -1.2436 -3.83027
Spine1  1.3712 -1.29367 -1.00279
HEad  -3.19381 -4.80667 -1.06048
LeftShoulder1  -1.51103 -13.6732 19.5616
LeftArm  -47.1125 -29.9468 21.0983
LeftForeArm  -2.72366 -5.8433 -0.765989
LeftHand  -0.172519 -0.623504 3.41978
RightShoulder  -0.428077 0.101971 -24.5031
RightArm  -82.0935 38.6938 -35.7578
RightForeArm  30.2502 0.339962 -14.9564
RightHand  -0.1914 -3.20566 -9.556
LeftUpLeg  -18.7684 2.3457 2.25666
LeftLeg  32.0956 8.75286 6.23986
LeftFoot  -11.5203 0.0640797 -3.19143
LeftToes  8.9788e-011 3.29689e-010 2.1201e-011
